<?xml version="1.0" encoding="utf-8"?>
<!-- Generator: Adobe Illustrator 19.0.0, SVG Export Plug-In . SVG Version: 6.00 Build 0)  -->
<svg version="1.1" id="Layer_1" xmlns="http://www.w3.org/2000/svg" xmlns:xlink="http://www.w3.org/1999/xlink" x="0px" y="0px"
	 viewBox="0 0 400 400" enable-background="new 0 0 400 400" xml:space="preserve">
<path id="XMLID_59_" fill="#1D1D1B" d="M77,83.3l29.1,1.2l-8.9,9.8l-25.9-0.9L86,106.7l-7.1,7.8L47.7,86.2l7.1-7.8L69,91.2l0.1-0.1
	l-5.2-22.7l7.8-8.6L77,83.3z"/>
<path id="XMLID_57_" fill="#1D1D1B" d="M150.8,40.1c0.7,1.5,1.3,3.1,1.7,4.3c1,3,1,6.2,0.3,9c-1,3.5-3.8,7.5-7.2,9.9
	c-1.8,1.3-3.9,2.5-6.3,3.6c-5,2.2-8.8,2.9-13,2.4c-2.3-0.3-4.4-1-6.3-2c-3.4-1.9-5.6-4.7-7.8-9.6l-9.5-21.2l9.7-4.3l8.5,19.1
	c1.7,3.8,2.9,5.6,4.6,7c2.9,2.2,6.7,2.6,10.5,0.9c4.6-2.1,7.2-6.7,6.2-11.2c-0.2-0.9-0.5-1.8-0.8-2.6l-1.2-2.8l-8.5-19.1l9.7-4.3
	L150.8,40.1z"/>
<path id="XMLID_55_" fill="#1D1D1B" d="M222.5,53.9l-8.8-0.1l-22.9-26.5l-0.4,26.1l-10.5-0.2l0.6-42.2l9.6,0.1l22.2,25.2l0.4-24.9
	l10.4,0.2L222.5,53.9z"/>
<path id="XMLID_53_" fill="#1D1D1B" d="M293.4,49.5l-0.5-0.6c-3.4-4.2-7.7-7.6-12-9.7c-8.5-4.1-16.1-2.1-19.6,5.2
	c-3.2,6.6-0.2,13.8,7.1,17.3c2.3,1.1,4.8,1.8,7.4,1.9l2.1-4.5l-5.5-2.6l3.4-7.1l15.1,7.3l-7.6,15.7c-5.3,1.3-12.3,0.4-18.7-2.7
	c-13.2-6.4-18.7-19-13.2-30.4c5.6-11.6,18.7-15,32.4-8.4c3.3,1.6,6.6,3.7,9.2,6c1.7,1.4,2.4,2.2,4.2,4.3L293.4,49.5z"/>
<path id="XMLID_51_" fill="#1D1D1B" d="M320.2,116.2l-21.3-24.1l31.6-28l7.1,8l-25.7,22.8l14.3,16.1L320.2,116.2z"/>
<path id="XMLID_47_" fill="#1D1D1B" d="M50.2,166l-0.7,4.1c-0.9,4.8-2.6,6.6-5.7,6c-3.3-0.6-4.2-2.8-3.3-7.8l0.7-3.9L50.2,166z
	 M59.5,156.8L18,149.3l-3.5,19c-0.7,3.7-0.8,5.9-0.4,8c0.8,5.5,4.4,9.2,9.7,10.2c5.5,1,9.5-1.2,12.4-6.8c1.1,3.8,3.9,6.5,7.3,7.1
	c4.3,0.8,8.8-1.7,11-6.2c1.1-2.2,1.5-3.6,2.3-8L59.5,156.8z M33.7,163l-0.8,4.6c-1.3,7-2.8,9-6.7,8.3c-3.7-0.7-4.6-3.1-3.4-9.6
	l0.9-5.1L33.7,163z"/>
<path id="XMLID_45_" fill="#1D1D1B" d="M14.5,230L13,219.5l41.8-5.7l1.4,10.5L14.5,230z"/>
<path id="XMLID_41_" fill="#1D1D1B" d="M59.9,261.9l1.8,3.7c2.2,4.4,1.9,6.8-1,8.2c-3,1.5-5,0.3-7.3-4.3l-1.8-3.5L59.9,261.9z
	 M61.9,249l-37.8,18.8l8.6,17.4c1.7,3.3,2.9,5.2,4.4,6.6c4,3.9,9.1,4.7,13.8,2.4c5-2.5,6.8-6.7,5.8-12.9c3.1,2.4,7,2.9,10.1,1.3
	c3.9-2,6-6.7,5.1-11.5c-0.4-2.4-1-3.7-3-7.7L61.9,249z M44.8,269.4l2.1,4.2c3.2,6.4,3.1,8.9-0.4,10.6c-3.4,1.7-5.5,0.3-8.5-5.7
	l-2.3-4.7L44.8,269.4z"/>
<path id="XMLID_39_" fill="#1D1D1B" d="M85.2,349l-23.6-21.9l28.7-31l7.8,7.2l-23.3,25.2l15.8,14.6L85.2,349z"/>
<path id="XMLID_37_" fill="#1D1D1B" d="M113.1,365.9l-9.3-5.2l20.5-36.9l9.3,5.2L113.1,365.9z"/>
<path id="XMLID_34_" fill="#1D1D1B" d="M184.7,365.9c-1.2,7.3-7.6,11.7-15.2,10.4c-7.9-1.3-12.3-7.3-11-14.9
	c1.3-7.8,7.3-11.9,15.2-10.5C181.7,352.2,186.1,358.1,184.7,365.9z M195.5,367.5c2-12.1-6.8-23.2-20.2-25.4
	c-13.5-2.3-25.4,5.3-27.5,17.4c-2,12,6.8,23,20.1,25.3C181.4,387,193.4,379.5,195.5,367.5z"/>
<path id="XMLID_32_" fill="#1D1D1B" d="M255.6,343.4l-14.8,3.6l8.1,33.3l-10.4,2.5l-8.1-33.3l-14.8,3.6l-1.9-7.7l40-9.7L255.6,343.4
	z"/>
<path id="XMLID_30_" fill="#1D1D1B" d="M323,341.2l-25.1,18.4L273,325.5l24.8-18.1l4.6,6.3l-16.2,11.8l5,6.9l15.4-11.3l4.7,6.4
	l-15.4,11.3l6,8.2l16.5-12.1L323,341.2z"/>
<path id="XMLID_28_" fill="#1D1D1B" d="M341.9,282.8l28.9-4l-7,11.2l-25.7,3.8l16.8,10.4l-5.6,9l-35.8-22.3l5.6-9l16.2,10.1l0.1-0.1
	l-9.2-21.4l6.1-9.8L341.9,282.8z"/>
<path id="XMLID_26_" fill="#1D1D1B" d="M386.6,217.9l-5.7,30.6l-41.5-7.7l5.6-30.2l7.7,1.4l-3.7,19.7l8.4,1.6l3.5-18.8l7.8,1.5
	l-3.5,18.8l10,1.9l3.7-20.1L386.6,217.9z"/>
<path id="XMLID_24_" fill="#1D1D1B" d="M345,147.7l3.1,14.9l33.5-7l2.2,10.5l-33.5,7l3.1,15l-7.8,1.6l-8.4-40.3L345,147.7z"/>
<g id="XMLID_6_">
	<g id="XMLID_7_">
		<path id="XMLID_23_" fill="none" d="M193.3,165.4l0-13c0,0,14,0,14,0l0,13H193.3z"/>
		<g id="XMLID_8_">
			<path id="XMLID_22_" fill="#1D1D1B" d="M193.3,152.4l0-13.1c0,0,6.1-0.1,14,0l0,13.1L193.3,152.4z"/>
			<path id="XMLID_21_" fill="#1D1D1B" d="M193.3,236.2l-0.1-70.7c0,0,14,0,14,0l0.1,70.7L193.3,236.2z"/>
			<polygon id="XMLID_20_" fill="#1D1D1B" points="134.6,249.7 131.7,236.1 193.3,236.2 193.3,249.8 			"/>
			<polygon id="XMLID_19_" fill="#1D1D1B" points="265.8,249.8 268.8,235.8 207.3,235.9 207.3,249.8 			"/>
			<path id="XMLID_18_" fill="#1D1D1B" d="M115.3,163c0,0,40.9-11.1,78-10.6l0,13c0,0-33.2-1.1-75.1,10.4L115.3,163z"/>
			<path id="XMLID_17_" fill="#1D1D1B" d="M285.5,162.9c0,0-41.1-11-78.2-10.6l0,13.1c0,0,33.4-1.2,75.3,10.3L285.5,162.9z"/>
			<g id="XMLID_13_">
				<path id="XMLID_16_" fill="#1D1D1B" d="M101.5,166.2l-2.9-12.8c0,0,5.9-1.4,13.7-3.1l2.9,12.8L101.5,166.2z"/>
				<path id="XMLID_15_" fill="#1D1D1B" d="M118,239.2L104.4,179c0,0,13.7-3.1,13.7-3.2l13.6,60.3L118,239.2z"/>
				<path id="XMLID_14_" fill="none" d="M104.4,178.9l-2.9-12.8c0,0,5.9-1.4,13.7-3.1l2.9,12.8L104.4,178.9z"/>
			</g>
			<g id="XMLID_9_">
				<path id="XMLID_12_" fill="#1D1D1B" d="M299,166.1l2.9-12.8c0,0-5.9-1.4-13.7-3.1l-2.9,12.8L299,166.1z"/>
				<path id="XMLID_11_" fill="#1D1D1B" d="M282.5,239.1l13.6-60.3c0,0-13.7-3.1-13.7-3.2L268.8,236L282.5,239.1z"/>
				<path id="XMLID_10_" fill="none" d="M296.1,178.8l2.9-12.8c0,0-13.5-3.1-13.6-3.1l-3,12.8L296.1,178.8z"/>
			</g>
		</g>
	</g>
</g>
<path id="XMLID_4_" fill="#1D1D1B" d="M49.3,132.2c-2.9,0-5.4-2.5-5.4-5.4c0-3,2.4-5.4,5.4-5.4c3,0,5.4,2.4,5.4,5.3
	C54.6,129.8,52.2,132.2,49.3,132.2z"/>
<path id="XMLID_2_" fill="#1D1D1B" d="M349.7,132.1c-2.9,0-5.4-2.5-5.4-5.4c0-3,2.4-5.4,5.4-5.4c3,0,5.4,2.4,5.4,5.3
	C355,129.6,352.6,132.1,349.7,132.1z"/>
</svg>
